<?xml version="1.0" encoding="UTF-8" standalone="no"?>
<!-- Created with Inkscape (http://www.inkscape.org/) -->

<svg
   width="132.84746mm"
   height="160.1432mm"
   viewBox="0 0 132.84746 160.1432"
   version="1.1"
   id="svg5"
   inkscape:version="1.2.1 (9c6d41e410, 2022-07-14)"
   sodipodi:docname="arrow.white.up.svg"
   xmlns:inkscape="http://www.inkscape.org/namespaces/inkscape"
   xmlns:sodipodi="http://sodipodi.sourceforge.net/DTD/sodipodi-0.dtd"
   xmlns="http://www.w3.org/2000/svg"
   xmlns:svg="http://www.w3.org/2000/svg">
  <sodipodi:namedview
     id="namedview7"
     pagecolor="#000000"
     bordercolor="#000000"
     borderopacity="0.25"
     inkscape:showpageshadow="2"
     inkscape:pageopacity="1"
     inkscape:pagecheckerboard="0"
     inkscape:deskcolor="#d1d1d1"
     inkscape:document-units="mm"
     showgrid="false"
     inkscape:zoom="0.73851712"
     inkscape:cx="-141.49977"
     inkscape:cy="96.138598"
     inkscape:window-width="1920"
     inkscape:window-height="1009"
     inkscape:window-x="-8"
     inkscape:window-y="-8"
     inkscape:window-maximized="1"
     inkscape:current-layer="layer1" />
  <defs
     id="defs2" />
  <g
     inkscape:label="Layer 1"
     inkscape:groupmode="layer"
     id="layer1"
     transform="translate(-23.014656,-14.995927)">
    <path
       style="fill:#ffffff;fill-rule:evenodd;stroke:#ffffff;stroke-width:0.264583"
       id="path592"
       d="m 86.358909,36.51578 c 1.367417,5.528837 2.498352,11.110683 3.56993,16.70326 1.671354,9.16582 2.126634,18.482108 2.480363,27.773076 0.143976,7.755263 0.316394,15.528759 -0.05433,23.281424 -0.06972,1.45795 -0.185886,2.9133 -0.278826,4.36995 -0.44677,5.76614 -1.480931,11.45415 -2.551379,17.12864 -0.578414,2.53952 -0.449226,5.1153 -0.38099,7.69433 0.0065,2.45786 0.160168,4.91794 0.07296,7.37592 -0.05377,1.51553 -0.157752,2.31493 -0.308022,3.82875 -0.477369,3.86173 -1.21303,7.69175 -1.92024,11.51831 -0.661559,2.57361 -1.04747,5.26524 -2.074386,7.73024 -0.08396,0.18021 -0.167918,0.36042 -0.251878,0.54063 0,0 18.881759,10.48307 18.881759,10.48307 v 0 c 0.0664,-0.22434 0.1328,-0.44869 0.1992,-0.67303 0.27975,-1.09803 0.43588,-2.1932 0.63166,-3.30855 0.29304,-1.66954 0.69125,-3.31812 0.97876,-4.98876 0.71449,-3.87836 1.38841,-7.76516 1.95334,-11.66876 0.19255,-1.561 0.32363,-2.41512 0.41491,-3.98481 0.14129,-2.42949 0.0495,-4.8682 0.15072,-7.2991 0.0936,-2.5126 0.23956,-5.02105 0.2343,-7.53647 0.15117,-6.0055 0.59504,-11.99232 1.06159,-17.98076 0.11195,-1.47666 0.26099,-2.95098 0.33587,-4.42997 0.18736,-3.70089 0.0992,-5.20106 0.0327,-8.91828 -0.1823,-10.184882 8e-5,0.78512 -0.14307,-9.671728 -0.0225,-1.646682 -0.0524,-3.293253 -0.0785,-4.939879 -0.19622,-9.290664 -0.60344,-18.587085 -1.95135,-27.794032 -0.69665,-5.161655 -1.51584,-10.335307 -1.60822,-15.55257 0,0 -19.396842,-9.680901 -19.396842,-9.680901 z" />
    <path
       style="fill:#ffffff;fill-rule:evenodd;stroke:#ffffff;stroke-width:0.264583"
       id="path594"
       d="m 85.233771,15.460151 c 0.336894,2.734792 -0.406895,5.465536 -0.996011,8.114775 -0.617577,3.02878 -1.60996,5.969298 -3.013694,8.726807 -0.894792,1.757738 -1.594014,2.744787 -2.668347,4.409551 -3.45985,4.631145 -7.007915,9.201094 -10.647518,13.692978 -3.866288,4.705175 -8.68753,8.482962 -13.5099,12.151079 -4.099679,3.158874 -8.299111,6.183808 -12.431162,9.299671 -3.514286,2.437958 -6.863633,5.098864 -10.280631,7.667974 -2.430831,1.719947 -4.915112,3.392707 -7.622855,4.647506 -0.252963,0.09446 -0.505925,0.188916 -0.758888,0.283372 0,0 17.933537,11.829682 17.933537,11.829682 v 0 c 0.243943,-0.146778 0.487886,-0.293558 0.731832,-0.440338 2.491179,-1.621782 4.833443,-3.437808 7.149034,-5.299993 3.423298,-2.586453 6.916504,-5.075851 10.303689,-7.708157 3.949026,-3.267045 8.030467,-6.3653 12.075904,-9.511051 4.828704,-3.873934 9.618654,-7.877931 13.655172,-12.593788 3.701042,-4.536699 7.424616,-9.06272 10.927625,-13.754727 0.521401,-0.765876 1.068887,-1.514625 1.564198,-2.297628 2.191615,-3.464555 3.774234,-7.276769 4.884014,-11.215338 0.73915,-2.695295 1.54094,-5.374291 2.11583,-8.111555 0,0 -19.411829,-9.89082 -19.411829,-9.89082 z" />
    <path
       style="fill:#ffffff;fill-rule:evenodd;stroke:#ffffff;stroke-width:0.264583"
       id="path596"
       d="m 88.834414,15.128218 c 0.113631,0.2779 0.236141,0.552332 0.340886,0.8337 0.542836,1.458185 1.001401,2.945414 1.602338,4.382909 0.84586,2.023372 1.780286,4.00857 2.673128,6.011654 3.123337,7.409487 6.43192,14.733596 10.047334,21.91593 3.92261,7.114238 8.65118,13.737315 13.47318,20.26027 2.54262,3.338499 5.08533,6.685267 7.86234,9.834237 1.21606,1.242923 2.4586,2.516105 3.98006,3.392122 19.06968,10.979835 12.52553,8.19018 20.53783,11.534976 1.38156,0.492049 2.77166,0.973373 4.09312,1.610929 0,0 -16.84733,-13.284679 -16.84733,-13.284679 v 0 c -1.303,-0.450704 -2.59788,-0.932442 -3.85233,-1.506466 -7.03267,-3.454357 -1.13586,-0.590237 15.85633,9.296546 0.36149,0.210333 -0.73352,-0.402048 -1.09816,-0.60687 -1.04514,-0.587063 -1.21473,-0.644728 -2.15764,-1.414753 -0.36785,-0.300398 -0.70985,-0.631132 -1.06477,-0.946698 -3.307,-3.037782 -6.0385,-6.63779 -8.95769,-10.03491 -5.13511,-6.347524 -10.29451,-12.739635 -13.97922,-20.077483 -3.64034,-7.051894 -7.19286,-14.169093 -9.90951,-21.63899 -0.92273,-2.777725 -0.99784,-2.940105 -1.77813,-5.49511 -0.39926,-1.30733 -0.81855,-2.653091 -1.08908,-3.996307 -0.0516,-0.256295 -0.0665,-0.518636 -0.0998,-0.777954 0,0 -19.632926,-9.293053 -19.632926,-9.293053 z" />
    <path
       style="fill:#ffffff;fill-rule:evenodd;stroke:#ffffff;stroke-width:0.264583"
       id="path598"
       d="m 92.082002,35.646436 c -0.280532,1.496685 -1.0165,2.935309 -1.92088,4.150074 -0.49912,0.67168 -1.08775,1.269418 -1.775084,1.745052 0,0 18.393172,11.436501 18.393172,11.436501 v 0 c 0.68261,-0.709452 1.3121,-1.462355 1.84095,-2.296134 1.00972,-1.486514 1.80357,-3.077781 2.61978,-4.675267 0,0 -19.157938,-10.360226 -19.157938,-10.360226 z" />
    <path
       style="fill:#ffffff;fill-rule:evenodd;stroke:#ffffff;stroke-width:0.264583"
       id="path600"
       d="m 119.94928,69.195724 c 0.54047,1.142172 1.00032,2.319904 1.55588,3.454398 0.31758,0.96163 0.88637,1.796118 1.38225,2.667611 0.52517,0.821409 1.03372,1.655408 1.60432,2.44558 0.0773,0.116846 0.12987,0.254511 0.23188,0.350534 0.0837,0.07877 0.21735,0.08496 0.30706,0.156781 0.3512,0.281149 0.5908,0.731073 0.91674,1.034947 0.13347,0.124434 0.29847,0.210021 0.4477,0.315034 0.75062,0.586386 1.55276,1.144117 2.13664,1.902727 0.37836,0.226161 0.53229,0.659173 0.83768,0.960099 0.25953,0.25573 0.55293,0.481656 0.86871,0.663427 6.33446,3.646387 12.6921,7.252364 19.03816,10.878547 0.34669,0.279906 0.73453,0.455406 1.17225,0.533776 0.13281,0.02379 0.27574,-0.0024 0.40235,0.0443 0.10061,0.03706 0.16052,0.144801 0.25391,0.197472 0.0907,0.05112 0.19469,0.07361 0.29203,0.110423 0.10812,0.01558 0.23551,-0.01683 0.32435,0.04671 0.094,0.06723 0.0872,0.219874 0.16617,0.304205 0.0785,0.08384 0.19418,0.122801 0.29127,0.184203 -6.09661,-3.530494 -12.186,-7.07349 -18.28983,-10.591485 -0.21078,-0.121486 0.41073,0.26792 0.6383,0.353944 0.34522,0.23604 0.62977,0.492728 1.00758,0.673666 0,0 20.23476,7.994311 20.23476,7.994311 v 0 c -0.38832,-0.381153 -0.57147,-0.363916 -0.98433,-0.683369 -0.47702,-0.521342 -0.0315,-0.112307 -0.61226,-0.448437 -6.31535,-3.654996 -12.61494,-7.337176 -18.92686,-10.998112 -0.10399,-0.06032 -0.20383,-0.136345 -0.32048,-0.165423 -0.13602,-0.03391 -0.28415,0.0149 -0.42013,-0.01921 -0.0916,-0.02296 -0.16144,-0.09792 -0.24216,-0.146875 -0.37512,-0.166304 -0.1732,-0.105159 -0.60919,-0.17172 -0.46445,-0.176313 -0.79871,-0.683487 -1.32351,-0.751443 6.0448,3.478522 12.1,6.939034 18.1344,10.435566 0.14994,0.08688 -0.32288,-0.127235 -0.47787,-0.204774 -0.14956,-0.07483 -0.28045,-0.185518 -0.43412,-0.251495 -0.45078,-0.193534 -0.66745,-0.116755 -0.91239,-0.627062 -0.6747,-0.508228 0.0777,0.103896 -0.5838,-0.609351 -0.11057,-0.119222 -0.25768,-0.200565 -0.36882,-0.319249 -0.38842,-0.414788 -0.71452,-0.890252 -1.18626,-1.228749 -1.08134,-0.979657 0.26159,0.147524 -0.81923,-0.513771 -0.11648,-0.07127 -0.19428,-0.192061 -0.29519,-0.284062 -0.0879,-0.08018 -0.19842,-0.138072 -0.27116,-0.232261 -0.09,-0.116555 -0.10182,-0.288166 -0.20887,-0.389303 -0.0874,-0.08259 -0.22511,-0.08472 -0.33766,-0.127077 -0.0162,-0.0127 -0.59681,-0.46527 -0.60442,-0.473607 -0.10777,-0.117956 -0.17069,-0.271293 -0.27321,-0.39384 -0.10348,-0.123701 -0.24259,-0.215185 -0.34231,-0.341931 -0.11386,-0.144701 -0.19632,-0.311563 -0.29447,-0.467342 -0.107,-0.125751 -0.214,-0.251502 -0.321,-0.377251 -0.52692,-0.790794 -1.01937,-1.607436 -1.51878,-2.415304 -0.25269,-0.614934 -0.53547,-1.022811 -0.81674,-1.592996 -0.27039,-0.548121 -0.43959,-1.150598 -0.70839,-1.700736 0,0 -19.74095,-9.182039 -19.74095,-9.182039 z" />
  </g>
</svg>
