<?xml version="1.0" encoding="UTF-8" standalone="no"?>
<!-- Created with Inkscape (http://www.inkscape.org/) -->

<svg
   width="84.42881mm"
   height="138.66554mm"
   viewBox="0 0 84.428811 138.66554"
   version="1.1"
   id="svg5"
   inkscape:version="1.2.1 (9c6d41e410, 2022-07-14)"
   sodipodi:docname="pickup.white.svg"
   xmlns:inkscape="http://www.inkscape.org/namespaces/inkscape"
   xmlns:sodipodi="http://sodipodi.sourceforge.net/DTD/sodipodi-0.dtd"
   xmlns="http://www.w3.org/2000/svg"
   xmlns:svg="http://www.w3.org/2000/svg">
  <sodipodi:namedview
     id="namedview7"
     pagecolor="#000000"
     bordercolor="#000000"
     borderopacity="0.25"
     inkscape:showpageshadow="2"
     inkscape:pageopacity="1"
     inkscape:pagecheckerboard="0"
     inkscape:deskcolor="#d1d1d1"
     inkscape:document-units="mm"
     showgrid="false"
     inkscape:zoom="0.73851712"
     inkscape:cx="-163.1648"
     inkscape:cy="371.01374"
     inkscape:window-width="1920"
     inkscape:window-height="1009"
     inkscape:window-x="1912"
     inkscape:window-y="-8"
     inkscape:window-maximized="1"
     inkscape:current-layer="layer1" />
  <defs
     id="defs2">
    <inkscape:perspective
       sodipodi:type="inkscape:persp3d"
       inkscape:vp_x="-16.482207 : 88.17537 : 1"
       inkscape:vp_y="0 : 1269.5257 : 0"
       inkscape:vp_z="292.3195 : 88.17537 : 1"
       inkscape:persp3d-origin="137.91865 : 54.291045 : 1"
       id="perspective385" />
  </defs>
  <g
     inkscape:label="Layer 1"
     inkscape:groupmode="layer"
     id="layer1"
     transform="translate(-28.78021,-12.155687)">
    <path
       style="fill:#ffffff;fill-rule:evenodd;stroke:#ffffff;stroke-width:0.264583"
       id="path319"
       d="m 80.485701,15.218923 c -0.358127,1.389204 -1.041718,2.649016 -1.627653,3.948098 -0.839119,1.576571 -1.82738,3.064995 -2.758507,4.587348 -1.201959,1.763721 -1.83556,3.79737 -2.632863,5.751324 -0.640059,1.820853 -1.300705,3.631227 -2.015482,5.424135 -0.563134,1.399412 -1.122527,2.799739 -1.733907,4.178956 -1.053635,2.139101 -1.874859,4.377743 -2.594779,6.647524 -0.456208,1.766353 -1.127303,3.465436 -1.610247,5.223637 -0.387151,1.409465 -0.395046,1.582873 -0.683662,3.025651 -0.565578,2.69944 -0.779372,5.448622 -0.888373,8.198641 -0.05527,1.929939 -0.164478,3.89196 0.238628,5.796288 0.104836,0.495257 0.26358,0.97755 0.395369,1.466326 0.782495,2.279054 1.999869,4.427664 3.661831,6.18586 0.294317,0.311359 0.619122,0.592415 0.928682,0.888624 1.95988,1.714098 4.145203,2.491058 6.76715,2.373546 0.482616,-0.02162 0.959856,-0.110546 1.439783,-0.16582 2.466007,-0.420068 4.803947,-1.33786 7.049167,-2.414323 1.67532,-0.712385 3.206094,-1.703475 4.814342,-2.548051 1.345182,-0.677339 2.69801,-1.358265 3.873291,-2.315284 1.07718,-0.877134 1.237914,-1.126548 2.144885,-2.12643 1.488866,-1.875602 2.578007,-4.011411 3.501472,-6.208876 0.567105,-1.424538 1.226804,-2.807883 1.822562,-4.220554 0.78958,-1.835246 1.29866,-3.762878 1.78642,-5.694019 0.31884,-1.019921 0.49762,-2.125898 1.08458,-3.038739 0.61797,-1.172467 1.1159,-2.3974 1.57135,-3.639744 0.72,-1.945584 1.25737,-3.945416 1.70489,-5.968711 0.48147,-1.928191 0.77204,-3.895511 1.18579,-5.837847 0.39016,-1.341936 0.65126,-2.714049 0.95032,-4.077079 0.30914,-1.38801 0.54919,-2.78401 0.71677,-4.196316 0.13677,-1.106143 0.31164,-2.205026 0.42235,-3.316505 0.15225,-0.248337 0.11425,-0.624059 0.28372,-0.892332 0.38211,-0.96266 0.79725,-1.911448 1.13993,-2.889855 0.17793,-0.821505 0.55404,-1.558509 0.90526,-2.312709 0.32428,-0.675089 0.52427,-1.393084 0.71745,-2.112993 0,0 -10.56577,-2.594427 -10.56577,-2.594427 v 0 c 0.0269,0.07075 0.0353,0.06925 -0.0312,0.201958 -0.45201,1.020781 -0.93744,2.034076 -1.23655,3.114004 -0.29081,0.777063 -0.56249,1.562319 -0.89483,2.322905 -0.554956,1.343075 -0.978845,2.714159 -1.109846,4.169416 -0.0841,1.04737 -0.304059,2.076909 -0.365921,3.126408 -0.104817,1.084885 -0.347268,2.138166 -0.583909,3.200871 -0.273833,1.381698 -0.470093,2.778848 -0.861266,4.136842 -0.361583,1.871525 -0.62365,3.76347 -1.096407,5.612194 -0.347255,1.513639 -0.729247,3.014501 -1.372849,4.435959 -0.334632,0.833951 -0.655794,1.674717 -1.041903,2.486043 -0.867486,1.734289 -1.473089,3.551881 -1.905285,5.442554 -0.359363,1.416735 -0.728004,2.832684 -1.343512,4.165388 -0.592924,1.430986 -1.246558,2.835031 -1.810049,4.278439 -0.454525,1.129702 -0.961718,2.234026 -1.634051,3.254727 -0.0048,0.0063 -0.385151,0.505989 -0.442113,0.558313 -0.71442,0.656241 -1.638065,0.965052 -2.46225,1.450563 -1.553461,0.805942 -3.056654,1.704022 -4.64589,2.439844 -1.150546,0.61626 -2.384573,1.09542 -3.664535,1.360607 -0.07481,0.01733 -0.16252,0.0066 -0.224427,0.052 -0.04738,0.03477 1.190416,0.487138 0.634743,0.406104 -0.708721,-0.460322 -1.17743,-1.22191 -1.510699,-1.980809 -0.414023,-1.289558 -0.301837,-2.660835 -0.296096,-3.999121 0.06468,-2.153883 0.179248,-4.312227 0.598229,-6.431531 0.109124,-0.504828 0.350432,-1.652601 0.488881,-2.178418 0.442148,-1.679231 1.096637,-3.294878 1.546468,-4.972251 0.623271,-1.909398 1.392963,-3.758195 2.326479,-5.538901 0.686853,-1.552986 1.350063,-3.117554 1.946074,-4.70792 0.62889,-1.741792 1.284724,-3.473889 1.896594,-5.221961 0.580755,-1.437227 1.036825,-2.93411 1.884505,-4.246483 1.110512,-1.872963 2.314427,-3.691179 3.322691,-5.623513 0.72627,-1.526448 1.453459,-3.049888 2.087046,-4.617268 0,0 -10.192821,-3.822308 -10.192821,-3.822308 z" />
    <path
       style="fill:#ffffff;fill-rule:evenodd;stroke:#ffffff;stroke-width:0.264583"
       id="path325"
       d="m 69.847506,81.666775 c -0.872162,1.110022 -1.601073,2.313718 -2.32841,3.521445 -0.829143,1.342824 -1.375214,2.82725 -1.954662,4.287486 -0.527886,1.402815 -1.010431,2.821657 -1.395624,4.270356 -0.192022,1.257583 -0.579332,2.448679 -1.110142,3.599963 -0.699397,1.435243 -1.510194,2.811895 -2.285896,4.206805 -0.871678,1.48587 -1.459656,3.11092 -2.029249,4.72998 -0.574971,1.27906 -0.948997,2.64379 -1.546667,3.91154 -0.435668,0.88569 -0.976296,1.71169 -1.518388,2.53429 -0.549225,0.84928 -1.071152,1.72392 -1.722252,2.50033 -0.455488,0.64789 -0.875226,1.33103 -1.228206,2.0413 -0.335696,0.6755 -0.110268,0.37326 -0.363935,0.68773 -0.52428,0.85956 -1.136237,1.65775 -1.629087,2.53794 -0.655214,1.14832 -1.133451,2.36891 -1.44083,3.6519 -0.262301,1.3151 -0.367474,2.62833 -0.126208,3.94905 0.545196,1.80625 1.762962,2.5332 3.507064,2.95421 1.991539,0.37521 3.062565,0.10838 4.800756,-0.92364 1.548071,-1.16824 2.49924,-2.88603 3.460162,-4.52929 0.714285,-1.27822 1.376685,-2.58805 2.02134,-3.90332 0.538554,-0.80098 0.962813,-1.66782 1.37383,-2.53865 0.487802,-1.03392 0.906566,-2.09382 1.265024,-3.17916 0.359743,-1.05962 0.768043,-2.10327 1.248698,-3.11413 0.425828,-1.0268 0.939057,-2.01317 1.408583,-3.01961 0.249696,-0.46433 0.50431,-0.93235 0.723609,-1.41055 0.327139,-0.71335 0.101111,-0.39439 0.33327,-0.70092 0.497858,-0.82154 0.86569,-1.71721 1.34711,-2.54537 0.777324,-1.52026 1.431618,-3.10877 2.012809,-4.71453 0.436687,-1.468369 0.89571,-2.927658 1.510245,-4.332397 0.479909,-1.129088 0.827238,-2.312302 1.156867,-3.493201 0.245895,-0.985515 0.518101,-1.963108 0.793615,-2.940261 0.248412,-0.902899 0.522623,-1.789827 0.668514,-2.717041 0.104249,-0.558625 0.380236,-1.048597 0.600668,-1.569799 0.371824,-0.668364 0.642789,-1.387467 0.964314,-2.082001 0.06489,-0.158668 0.129788,-0.317334 0.194683,-0.476002 0,0 -3.668395,-1.473202 -3.668395,-1.473202 v 0 c -0.03785,0.09717 -0.07569,0.194328 -0.113538,0.291491 -0.339397,0.735947 -0.637268,1.485882 -1.021324,2.199431 -0.345887,0.819102 -0.750191,1.617168 -0.863057,2.513608 -0.110503,0.767487 -0.378339,1.49176 -0.561237,2.243034 -0.276124,0.980837 -0.53853,1.965246 -0.782979,2.954491 -0.283059,1.016892 -0.585126,2.034035 -0.982353,3.011932 -0.615762,1.479542 -1.119177,2.999259 -1.562531,4.539014 -0.511315,1.404033 -1.070531,2.801863 -1.783689,4.115943 -0.4568,0.82877 -0.85839,1.68677 -1.33591,2.50542 -0.429493,0.79575 -0.776129,1.62968 -1.207262,2.42659 -0.457655,1.002 -0.973915,1.97801 -1.386877,3.00094 -0.541602,1.16002 -1.030684,2.345 -1.432184,3.56107 -0.303919,0.93574 -0.675082,1.8402 -1.102069,2.7261 -0.403476,0.86301 -0.837425,1.70566 -1.352002,2.51028 -0.573797,1.22364 -1.163397,2.44434 -1.818995,3.62567 -0.653592,1.08994 -1.273752,2.22719 -2.149078,3.15893 -0.223848,0.14212 -0.471638,0.24769 -0.682903,0.40792 -0.02389,0.0181 -2.64e-4,0.0771 -0.02923,0.085 -0.382254,0.10509 -0.806725,-0.0497 -1.189191,-0.0618 -0.708575,-0.12217 -0.319315,-0.10992 -0.404788,0.091 -0.01413,0.0332 -0.06901,-0.0924 -0.101844,-0.0367 -0.264776,-0.63304 0.06592,-1.5576 0.0986,-2.21931 0.205713,-0.93188 0.58343,-1.80514 1.057198,-2.63343 0.445209,-0.82255 1.056185,-1.53995 1.525852,-2.34738 0.451104,-0.76701 0.803622,-1.5873 1.302446,-2.3286 0.718222,-0.89172 1.328089,-1.86216 1.950463,-2.82215 0.665586,-0.99706 1.29952,-2.01692 1.817968,-3.0999 0.606552,-1.39076 1.062469,-2.84158 1.656533,-4.23835 0.485682,-1.41315 0.997222,-2.82825 1.758828,-4.12028 0.816467,-1.48094 1.665859,-2.94421 2.415021,-4.460631 0.627251,-1.355087 1.125406,-2.755815 1.355762,-4.237982 0.339614,-1.296341 0.756566,-2.569321 1.226807,-3.824163 0.509125,-1.266047 0.986417,-2.555668 1.688709,-3.731104 0.73184,-1.240054 1.504659,-2.436132 2.404639,-3.562275 0,0 -3.438991,-1.96514 -3.438991,-1.96514 z" />
    <g
       sodipodi:type="inkscape:box3d"
       id="g387"
       style="fill:#ffffff;fill-rule:evenodd;stroke:#ffffff"
       inkscape:perspectiveID="#perspective385"
       inkscape:corner0="4.0109447 : -0.13362118 : 0 : 1"
       inkscape:corner7="2.5654798 : -0.2129743 : 0.58061606 : 1">
      <path
         sodipodi:type="inkscape:box3dside"
         id="path399"
         style="fill:#e9e9ff;fill-rule:evenodd;stroke:none;stroke-width:1.71784;stroke-linejoin:round"
         inkscape:box3dsidetype="11"
         d="m 71.976525,99.043543 20.805889,12.689427 v 24.29775 L 71.976525,117.06013 Z"
         points="92.782414,111.73297 92.782414,136.03072 71.976525,117.06013 71.976525,99.043543 " />
      <path
         sodipodi:type="inkscape:box3dside"
         id="path389"
         style="fill:#353564;fill-rule:evenodd;stroke:none;stroke-width:1.71784;stroke-linejoin:round"
         inkscape:box3dsidetype="6"
         d="m 43.110727,103.26093 v 20.10415 l 28.865798,-6.30495 V 99.043543 Z"
         points="43.110727,123.36508 71.976525,117.06013 71.976525,99.043543 43.110727,103.26093 " />
      <path
         sodipodi:type="inkscape:box3dside"
         id="path397"
         style="fill:#afafde;fill-rule:evenodd;stroke:none;stroke-width:1.71784;stroke-linejoin:round"
         inkscape:box3dsidetype="13"
         d="M 43.110727,123.36508 55.602373,147.98099 92.782414,136.03072 71.976525,117.06013 Z"
         points="55.602373,147.98099 92.782414,136.03072 71.976525,117.06013 43.110727,123.36508 " />
      <path
         sodipodi:type="inkscape:box3dside"
         id="path391"
         style="fill:#4d4d9f;fill-rule:evenodd;stroke:none;stroke-width:1.71784;stroke-linejoin:round"
         inkscape:box3dsidetype="5"
         d="M 43.110727,103.26093 55.602373,119.7265 92.782414,111.73297 71.976525,99.043543 Z"
         points="55.602373,119.7265 92.782414,111.73297 71.976525,99.043543 43.110727,103.26093 " />
      <path
         sodipodi:type="inkscape:box3dside"
         id="path395"
         style="fill:#d7d7ff;fill-rule:evenodd;stroke:none;stroke-width:1.71784;stroke-linejoin:round"
         inkscape:box3dsidetype="14"
         d="m 55.602373,119.7265 v 28.25449 l 37.180041,-11.95027 v -24.29775 z"
         points="55.602373,147.98099 92.782414,136.03072 92.782414,111.73297 55.602373,119.7265 " />
      <path
         sodipodi:type="inkscape:box3dside"
         id="path393"
         style="fill:#8686bf;fill-rule:evenodd;stroke:none;stroke-width:1.71784;stroke-linejoin:round"
         inkscape:box3dsidetype="3"
         d="m 43.110727,103.26093 12.491646,16.46557 v 28.25449 L 43.110727,123.36508 Z"
         points="55.602373,119.7265 55.602373,147.98099 43.110727,123.36508 43.110727,103.26093 " />
    </g>
  </g>
  <g
     inkscape:groupmode="layer"
     id="layer2"
     inkscape:label="Layer 2"
     transform="translate(-5.765554,2.8402404)">
    <path
       style="fill:#ffffff;fill-rule:evenodd;stroke:#ffffff;stroke-width:0.264583"
       id="path323"
       d="m 83.942188,83.012205 c 1.735394,1.52201 3.290652,3.239476 4.811985,4.971769 1.250395,1.618433 2.438204,3.290435 3.540739,5.013492 0.673894,0.994854 1.017225,2.143368 1.252567,3.309347 0.239212,1.514512 0.238072,3.054522 0.253283,4.583957 0.0056,1.77785 -0.0048,3.55568 4.5e-5,5.33353 -0.004,0.8805 -0.0054,1.761 -0.0098,2.6415 -0.0026,0.50079 0.04363,0.79804 -0.106283,1.257 -0.04976,0.15235 -0.135151,0.29065 -0.202726,0.43597 -0.633169,1.12553 -1.407493,2.2261 -2.470563,2.98351 -1.256294,0.72336 -2.567117,1.3516 -3.865806,1.99583 -1.162896,0.50771 -2.299144,1.03963 -3.397025,1.67704 -0.878737,0.55608 -1.787686,1.05995 -2.694895,1.5693 -1.17883,0.64031 -2.475772,1.03781 -3.732085,1.50087 -1.464506,0.4551 -2.882638,0.99963 -4.251153,1.69146 -1.15982,0.58941 -2.205051,1.37253 -3.193021,2.21238 -0.987549,0.94605 -2.03328,1.78503 -3.182043,2.52384 -1.582036,0.94936 -2.71513,1.9576 -3.579601,3.59636 -0.626695,1.53214 -0.591238,2.72477 -0.04816,4.26915 0.580382,1.58868 1.488967,2.36629 2.954872,3.16364 1.844067,0.73993 3.845026,0.89692 5.810695,0.99031 1.791658,0.0576 3.584768,0.0404 5.37701,0.0278 2.156849,0.005 4.310198,0.002 6.46389,-0.12022 2.383428,-0.23359 4.69025,-0.89723 6.878923,-1.85001 2.191139,-0.88166 4.006628,-2.32411 5.735638,-3.89378 1.648285,-1.54748 3.116021,-3.26268 4.641286,-4.9263 1.37875,-1.41525 2.82895,-2.73861 4.02768,-4.31579 1.01967,-1.62982 1.63048,-3.47451 2.15959,-5.31168 0.45617,-1.65555 0.94532,-3.29779 1.35371,-4.96643 0.42939,-1.73341 0.57396,-3.51613 0.65043,-5.2947 0.004,-1.81043 -0.29496,-3.60216 -0.63952,-5.37352 -0.33673,-1.54723 -0.7598,-3.072438 -1.14926,-4.60673 -0.41997,-1.697781 -0.66615,-3.431411 -1.09331,-5.126527 -0.41597,-1.558375 -1.09761,-3.008006 -1.8533,-4.424664 -0.89259,-1.630225 -2.14422,-3.010202 -3.2714,-4.473848 -0.80998,-1.105355 -1.719507,-2.130451 -2.584039,-3.192266 -0.792395,-0.994186 -1.569789,-1.998909 -2.334749,-3.015025 -0.547682,-0.785816 -1.042779,-1.607535 -1.622708,-2.369741 -0.501732,-0.666147 -1.230726,-1.049131 -1.865903,-1.554969 -0.114347,-0.07925 -0.228698,-0.158504 -0.343045,-0.237758 0,0 -2.238709,3.272335 -2.238709,3.272335 v 0 c 0.05641,0.03757 0.112827,0.07515 0.169238,0.112715 0.393399,0.296879 0.817444,0.517345 1.172962,0.854078 0.605446,0.704906 1.006329,1.578512 1.594112,2.30025 0.80061,1.047864 1.612677,2.085637 2.428226,3.121237 0.847884,1.035166 1.730706,2.041411 2.536339,3.110653 1.001691,1.277353 2.124776,2.475728 2.902186,3.912637 0.6076,1.1443 1.17618,2.304349 1.52091,3.560287 0.44455,1.68022 0.68288,3.407949 1.09965,5.095745 0.36208,1.473231 0.75599,2.937631 1.08723,4.418331 0.29182,1.46572 0.58566,2.94509 0.58227,4.44601 -0.0679,1.52225 -0.17082,3.05001 -0.5407,4.53422 -0.39934,1.62145 -0.86284,3.22069 -1.32009,4.82655 -0.38939,1.38582 -0.8401,2.77086 -1.52554,4.04165 -1.09759,1.49508 -2.514094,2.68701 -3.765403,4.04841 -1.435391,1.58472 -2.837339,3.19429 -4.396465,4.66201 -1.471867,1.34741 -2.793209,2.46128 -4.682226,3.21698 -1.751549,0.78579 -3.618576,1.30979 -5.528407,1.52831 -2.085401,0.1121 -4.170344,0.12209 -6.258775,0.10372 -1.727893,-0.004 -3.456328,0.01 -5.183666,-0.0419 -1.403062,-0.0656 -2.829216,-0.1404 -4.177548,-0.56672 -0.685917,-0.32402 -0.789425,-0.36136 -1.085991,-1.10373 -0.07015,-0.13049 -0.07336,-0.29141 -0.149278,-0.41863 -0.01407,-0.0236 -0.05248,0.0884 -0.05534,0.0611 -0.02582,-0.24664 0.08395,-0.50541 0.103933,-0.74915 0.379024,-0.9721 1.300157,-1.50048 2.134648,-2.05067 1.305607,-0.82251 2.513507,-1.74695 3.630975,-2.81314 0.761545,-0.64188 1.557287,-1.25822 2.445864,-1.71497 1.226753,-0.64103 2.50218,-1.12223 3.829018,-1.52107 1.438569,-0.54558 2.928861,-0.9874 4.279807,-1.73321 0.934128,-0.5196 1.868993,-1.03932 2.774633,-1.60595 1.014939,-0.60463 2.072343,-1.09177 3.15251,-1.57237 1.522235,-0.76869 3.071529,-1.50035 4.51853,-2.40446 1.575269,-1.27612 2.8414,-2.86607 3.714303,-4.70418 0.136607,-0.39704 0.309526,-0.78339 0.409824,-1.19112 0.361582,-1.4699 0.04684,-3.02048 0.149471,-4.51131 0.01103,-1.79281 0.01545,-3.58572 0.0024,-5.37854 -0.01738,-1.784475 7.94e-4,-3.583322 -0.309017,-5.347032 -0.350634,-1.641236 -0.859769,-3.250279 -1.825287,-4.644842 -1.23884,-1.856724 -2.525506,-3.688067 -3.915711,-5.434512 -1.58668,-1.780805 -3.202091,-3.541075 -4.913318,-5.203428 0,0 -2.789592,2.789589 -2.789592,2.789589 z"
       transform="translate(-23.014656,-14.995927)" />
    <path
       style="fill:#ffffff;fill-rule:evenodd;stroke:#ffffff;stroke-width:0.264583"
       id="path321"
       d="m 61.958793,70.482843 c -1.243592,0.39424 -2.437585,0.924306 -3.651872,1.398145 -1.252802,0.545428 -2.521082,1.050137 -3.768913,1.607109 -1.320644,0.540096 -2.614612,1.169246 -3.863099,1.861891 -1.610126,0.886944 -3.095682,1.969939 -4.645591,2.953496 -1.602406,1.013248 -3.153106,2.096228 -4.593735,3.329281 -1.107495,0.911194 -2.005161,2.024756 -2.885729,3.147005 -0.770522,1.063281 -1.465507,2.179563 -2.102635,3.327021 -0.703893,1.318517 -1.457857,2.609607 -2.148005,3.935423 -0.885656,1.472499 -1.517806,3.075885 -2.276549,4.613511 -0.738482,1.355137 -1.392228,2.743266 -1.861665,4.214275 -0.476766,1.46541 -0.832748,2.95921 -1.045945,4.48461 -0.160262,1.28928 -0.18427,2.59049 -0.194612,3.88811 -0.02485,1.32567 0.0066,2.64464 0.123069,3.96509 0.09181,1.6022 0.34343,3.17017 0.940849,4.66176 0.49493,0.98614 1.028476,1.94317 1.679741,2.83426 0.681499,0.91978 1.56775,1.65009 2.343665,2.48482 0.838342,0.81842 1.594608,1.72933 2.667711,2.25481 0.287109,0.14059 0.594879,0.23433 0.892318,0.35149 1.399251,0.47411 2.868405,0.66493 4.335331,0.77161 1.452095,0.0317 2.615762,-0.44018 3.768581,-1.27921 1.17375,-0.8815 1.888768,-2.13801 2.43435,-3.46988 0.458791,-1.29824 0.646763,-2.65322 0.774277,-4.01706 0.195282,-1.44646 -0.01133,-2.86756 -0.381146,-4.26578 -0.253593,-1.13177 -0.734879,-2.16277 -1.286955,-3.17431 -0.619481,-0.98872 -1.204233,-2.00016 -1.841358,-2.97796 -0.325902,-0.60008 -0.766827,-1.19078 -0.887816,-1.87593 -0.166514,-1.21689 -0.160403,-2.4497 -0.170357,-3.67554 0.0081,-1.09068 -0.05215,-2.182569 0.103316,-3.264262 0.286008,-0.688867 0.566994,-1.380054 0.830508,-2.078755 0.473867,-0.844378 0.899159,-1.730557 1.499194,-2.495513 0.688062,-0.802005 1.295353,-1.688232 2.068732,-2.41378 0.67866,-0.654635 1.461483,-1.168755 2.268195,-1.64855 1.039191,-0.62525 2.126956,-1.163841 3.155585,-1.805488 1.018709,-0.625266 1.806924,-1.528656 2.691103,-2.316591 0.626004,-0.531995 1.261592,-1.052414 1.869652,-1.605767 0.663995,-0.445812 1.344866,-0.880972 1.997686,-1.350735 0.720156,-0.502409 1.393208,-1.059947 2.166371,-1.48278 0.773433,-0.489519 1.528085,-1.00742 2.264135,-1.551218 0.642176,-0.5798 1.200124,-1.230045 1.839614,-1.806945 0,0 -2.675419,-2.92436 -2.675419,-2.92436 v 0 c -0.525788,0.491376 -1.041342,0.988155 -1.498643,1.544216 -0.617005,0.448226 -1.241859,0.882449 -1.879735,1.301184 -0.884915,0.512464 -1.694942,1.121569 -2.519696,1.721774 -0.786386,0.56701 -1.642416,1.036431 -2.392224,1.649859 -0.571246,0.556853 -1.215494,1.032918 -1.807279,1.566704 -0.713354,0.643474 -1.3466,1.381789 -2.143353,1.924476 -0.996778,0.629589 -2.06566,1.139661 -3.076635,1.746676 -1.087496,0.642892 -2.118514,1.368914 -3.032689,2.246249 -0.886598,0.906727 -1.67648,1.899692 -2.485356,2.875333 -0.759134,1.076573 -1.400287,2.234443 -1.982188,3.415045 -0.383761,0.98134 -0.874895,1.92799 -1.071189,2.971533 -0.157636,1.268093 -0.116187,2.538865 -0.107181,3.814735 0.01337,1.53123 0.0048,3.07472 0.256318,4.58938 0.29665,1.10915 0.791436,2.12756 1.425294,3.08692 0.580997,0.8809 1.100605,1.80138 1.669545,2.68986 0.402832,0.7567 0.778799,1.50459 0.96062,2.352 0.279252,0.94052 0.392317,1.88456 0.261779,2.86361 -0.08658,0.99185 -0.220205,1.97144 -0.52783,2.92242 -0.254961,0.69095 -0.581661,1.36601 -1.19528,1.8051 -0.259008,0.30061 -0.708631,0.4049 -1.0838,0.45998 -1.080632,-0.0617 -2.16686,-0.17178 -3.202319,-0.5054 -0.191404,-0.0663 -0.402265,-0.0916 -0.574386,-0.19846 -0.586734,-0.3641 -0.968319,-0.98535 -1.492791,-1.42136 -0.669854,-0.72096 -1.420287,-1.36315 -2.041118,-2.12569 -0.468776,-0.64704 -0.846111,-1.34193 -1.239226,-2.03646 -0.499456,-1.08213 -0.56975,-2.28822 -0.664624,-3.4618 -0.09288,-1.2033 -0.118882,-2.40479 -0.09009,-3.61201 0.0078,-1.13011 0.01343,-2.26282 0.143315,-3.38708 0.173611,-1.31282 0.488709,-2.59213 0.907051,-3.84906 0.385735,-1.28914 1.010338,-2.476123 1.629858,-3.666132 0.731255,-1.515334 1.359858,-3.084269 2.221657,-4.533085 0.669865,-1.297408 1.45202,-2.532282 2.132054,-3.824718 0.532846,-0.967068 1.114216,-1.905461 1.745238,-2.812256 0.725252,-0.92587 1.465728,-1.842649 2.366554,-2.607101 1.275907,-1.124514 2.661744,-2.103065 4.103895,-3.004302 1.49011,-0.939734 2.918466,-1.974844 4.470747,-2.81328 1.143355,-0.636363 2.336237,-1.204796 3.544811,-1.70089 1.196742,-0.523436 2.405774,-1.014611 3.605533,-1.531173 1.062175,-0.409953 2.101725,-0.885698 3.191216,-1.218366 0,0 -0.960432,-3.841734 -0.960432,-3.841734 z"
       transform="translate(-23.014656,-14.995927)" />
  </g>
</svg>
